<svg width="178" height="48" viewBox="0 0 178 48" fill="none"
	xmlns="http://www.w3.org/2000/svg">
	<g clip-path="url(#clip0_1028_4313)">
		<path d="M99.9332 19.1419V9.57096H66.8438V0H99.9332V9.57096H110.963V19.1419H99.9332ZM77.8736 28.7129V19.1419H99.9332V28.7129H77.8736ZM66.8438 47.8548V28.7129H77.8736V38.2838H110.963V47.8548H66.8438Z" fill="white" />
		<path d="M113.342 27.3193V24.3697H106.544V21.4199H113.342V24.3697H116.742V27.3193H113.342ZM106.544 36.1686V33.2188H103.145V24.3697H106.544V33.2188H113.342V36.1686H106.544ZM113.342 33.2188V30.2691H116.742V33.2188H113.342Z" fill="white" />
		<path d="M123.543 36.1686V24.3697H126.942V21.4199H133.741V24.3697H137.14V36.1686H133.741V30.2691H126.942V36.1686H123.543ZM126.942 27.3193H133.741V24.4876H126.942V27.3193Z" fill="white" />
		<path d="M147.337 24.3697V21.4199H157.535V24.3697H147.337ZM154.136 33.2188V30.2691H147.337V27.3193H143.938V24.3697H147.337V27.3193H154.136V30.2691H157.535V33.2188H154.136ZM143.938 36.1686V33.2188H154.136V36.1686H143.938Z" fill="white" />
		<path d="M164.332 36.1686V21.4199H167.731V27.3193H174.53V21.4199H177.93V36.1686H174.53V30.2691H167.731V36.1686H164.332Z" fill="white" />
		<path d="M0 26.6119V11.8633H3.39935V17.7628H10.198V11.8633H13.5974V26.6119H10.198V20.7126H3.39935V26.6119H0Z" fill="white" />
		<path d="M20.3945 26.6119V14.813H23.7939V11.8633H30.5925V14.813H33.9919V26.6119H30.5925V20.7126H23.7939V26.6119H20.3945ZM23.7939 17.7628H30.5925V14.931H23.7939V17.7628Z" fill="white" />
		<path d="M44.1924 14.813V11.8633H54.3903V14.813H44.1924ZM50.9909 23.6622V20.7126H44.1924V17.7628H40.793V14.813H44.1924V17.7628H50.9909V20.7126H54.3903V23.6622H50.9909ZM40.793 26.6119V23.6622H50.9909V26.6119H40.793Z" fill="white" />
		<path d="M61.1875 26.6119V11.8633H64.5867V17.7628H71.3855V11.8633H74.7848V26.6119H71.3855V20.7126H64.5867V26.6119H61.1875Z" fill="white" />
	</g>
	<defs>
		<clipPath id="clip0_1028_4313">
			<rect width="178" height="48" fill="white" />
		</clipPath>
	</defs>
</svg>